<svg xmlns="http://www.w3.org/2000/svg" viewBox="0 0 100 100" fill="none" stroke="#DCE7DE" stroke-width="1.5" stroke-linecap="round" stroke-linejoin="round">
  <path d="M50 85 C50 85 40 55 50 15" stroke-width="2" />
  <path d="M50 65 Q30 65 25 55 Q40 50 50 65" />
  <path d="M50 65 L35 58" />
  <path d="M50 50 Q70 50 75 40 Q60 35 50 50" />
  <path d="M50 50 L65 43" />
  <path d="M50 35 Q32 32 30 22 Q43 20 50 35" />
  <path d="M50 35 L38 27" />
  <path d="M50 20 Q65 15 62 5 Q52 8 50 20" />
</svg>
