<svg xmlns="http://www.w3.org/2000/svg" viewBox="0 0 100 100" fill="none" stroke="#DCE7DE" stroke-width="1.5" stroke-linecap="round" stroke-linejoin="round">
  <path d="M55 25 C62 30 65 38 18 82 C16 84 13 83 12 81 C11 80 12 77 14 75 L53 23 C53 23 54 24 55 25 Z" stroke-width="2" />
  <path d="M28 66 Q30 63 35 60" />
  <path d="M40 52 Q42 49 45 46" />
  <path d="M48 40 Q50 37 52 34" />
  <path d="M53 23 C53 23 55 12 62 10" />
  <path d="M54 24 C54 24 64 18 70 12" />
  <path d="M55 25 C55 25 64 28 72 24" />
</svg>
